<svg xmlns="http://www.w3.org/2000/svg" xmlns:xlink="http://www.w3.org/1999/xlink" contentStyleType="text/css" data-diagram-type="CLASS" height="337px" preserveAspectRatio="none" style="width:756px;height:337px;background:#FFFFFF;" version="1.1" viewBox="0 0 756 337" width="756px" zoomAndPan="magnify"><title>Core API data model</title><defs/><g><g class="title" data-source-line="1"><text fill="#000000" font-family="sans-serif" font-size="14" font-weight="bold" lengthAdjust="spacing" textLength="161.3486" x="290.7637" y="22.9951">Core API data model</text></g><!--class Scenario--><g class="entity" data-entity="Scenario" data-source-line="3" data-uid="ent0002" id="entity_Scenario"><rect fill="#F1F1F1" height="113.1875" rx="2.5" ry="2.5" style="stroke:#181818;stroke-width:0.5;" width="225.8008" x="244.27" y="44.2969"/><ellipse cx="322.4902" cy="60.2969" fill="#ADD1B2" rx="11" ry="11" style="stroke:#181818;stroke-width:1;"/><path d="M325.459,65.9375 Q324.8808,66.2344 324.2402,66.375 Q323.5996,66.5313 322.8965,66.5313 Q320.3965,66.5313 319.0683,64.8906 Q317.7558,63.2344 317.7558,60.1094 Q317.7558,56.9844 319.0683,55.3281 Q320.3965,53.6719 322.8965,53.6719 Q323.5996,53.6719 324.2402,53.8281 Q324.8965,53.9844 325.459,54.2813 L325.459,57 Q324.834,56.4219 324.2402,56.1563 Q323.6465,55.875 323.0215,55.875 Q321.6777,55.875 320.9902,56.9531 Q320.3027,58.0156 320.3027,60.1094 Q320.3027,62.2031 320.9902,63.2813 Q321.6777,64.3438 323.0215,64.3438 Q323.6465,64.3438 324.2402,64.0781 Q324.834,63.7969 325.459,63.2188 L325.459,65.9375 Z " fill="#000000"/><text fill="#000000" font-family="sans-serif" font-size="14" lengthAdjust="spacing" textLength="60.8604" x="342.9902" y="65.1436">Scenario</text><line style="stroke:#181818;stroke-width:0.5;" x1="245.27" x2="469.0708" y1="76.2969" y2="76.2969"/><ellipse cx="255.27" cy="89.9453" fill="none" rx="3" ry="3" style="stroke:#038048;stroke-width:1;"/><text fill="#000000" font-family="sans-serif" font-size="14" lengthAdjust="spacing" textLength="62.1318" x="264.27" y="93.292">id: string</text><ellipse cx="255.27" cy="106.2422" fill="none" rx="3" ry="3" style="stroke:#038048;stroke-width:1;"/><text fill="#000000" font-family="sans-serif" font-size="14" lengthAdjust="spacing" textLength="106.7568" x="264.27" y="109.5889">map_ref: string</text><ellipse cx="255.27" cy="122.5391" fill="none" rx="3" ry="3" style="stroke:#038048;stroke-width:1;"/><text fill="#000000" font-family="sans-serif" font-size="14" lengthAdjust="spacing" textLength="199.8008" x="264.27" y="125.8857">base_stations: BaseStation[]</text><ellipse cx="255.27" cy="138.8359" fill="none" rx="3" ry="3" style="stroke:#038048;stroke-width:1;"/><text fill="#000000" font-family="sans-serif" font-size="14" lengthAdjust="spacing" textLength="110.667" x="264.27" y="142.1826">drones: Drone[]</text><line style="stroke:#181818;stroke-width:0.5;" x1="245.27" x2="469.0708" y1="149.4844" y2="149.4844"/></g><!--class Drone--><g class="entity" data-entity="Drone" data-source-line="10" data-uid="ent0003" id="entity_Drone"><rect fill="#F1F1F1" height="113.1875" rx="2.5" ry="2.5" style="stroke:#181818;stroke-width:0.5;" width="140.3379" x="7" y="217.4869"/><ellipse cx="51.625" cy="233.4869" fill="#ADD1B2" rx="11" ry="11" style="stroke:#181818;stroke-width:1;"/><path d="M54.5938,239.1275 Q54.0156,239.4244 53.375,239.565 Q52.7344,239.7213 52.0313,239.7213 Q49.5313,239.7213 48.2031,238.0806 Q46.8906,236.4244 46.8906,233.2994 Q46.8906,230.1744 48.2031,228.5181 Q49.5313,226.8619 52.0313,226.8619 Q52.7344,226.8619 53.375,227.0181 Q54.0313,227.1744 54.5938,227.4713 L54.5938,230.19 Q53.9688,229.6119 53.375,229.3463 Q52.7813,229.065 52.1563,229.065 Q50.8125,229.065 50.125,230.1431 Q49.4375,231.2056 49.4375,233.2994 Q49.4375,235.3931 50.125,236.4713 Q50.8125,237.5338 52.1563,237.5338 Q52.7813,237.5338 53.375,237.2681 Q53.9688,236.9869 54.5938,236.4088 L54.5938,239.1275 Z " fill="#000000"/><text fill="#000000" font-family="sans-serif" font-size="14" lengthAdjust="spacing" textLength="42.5879" x="72.125" y="238.3336">Drone</text><line style="stroke:#181818;stroke-width:0.5;" x1="8" x2="146.3379" y1="249.4869" y2="249.4869"/><ellipse cx="18" cy="263.1353" fill="none" rx="3" ry="3" style="stroke:#038048;stroke-width:1;"/><text fill="#000000" font-family="sans-serif" font-size="14" lengthAdjust="spacing" textLength="62.1318" x="27" y="266.482">id: string</text><ellipse cx="18" cy="279.4322" fill="none" rx="3" ry="3" style="stroke:#038048;stroke-width:1;"/><text fill="#000000" font-family="sans-serif" font-size="14" lengthAdjust="spacing" textLength="114.3379" x="27" y="282.7789">init_pos: float[3]</text><ellipse cx="18" cy="295.7291" fill="none" rx="3" ry="3" style="stroke:#038048;stroke-width:1;"/><text fill="#000000" font-family="sans-serif" font-size="14" lengthAdjust="spacing" textLength="102.7988" x="27" y="299.0757">mission: string</text><ellipse cx="18" cy="312.0259" fill="none" rx="3" ry="3" style="stroke:#038048;stroke-width:1;"/><text fill="#000000" font-family="sans-serif" font-size="14" lengthAdjust="spacing" textLength="93.0029" x="27" y="315.3726">params: map</text><line style="stroke:#181818;stroke-width:0.5;" x1="8" x2="146.3379" y1="322.6744" y2="322.6744"/></g><!--class BaseStation--><g class="entity" data-entity="BaseStation" data-source-line="17" data-uid="ent0004" id="entity_BaseStation"><rect fill="#F1F1F1" height="113.1875" rx="2.5" ry="2.5" style="stroke:#181818;stroke-width:0.5;" width="155.876" x="182.23" y="217.4869"/><ellipse cx="215.2357" cy="233.4869" fill="#ADD1B2" rx="11" ry="11" style="stroke:#181818;stroke-width:1;"/><path d="M218.2045,239.1275 Q217.6263,239.4244 216.9857,239.565 Q216.3451,239.7213 215.642,239.7213 Q213.142,239.7213 211.8138,238.0806 Q210.5013,236.4244 210.5013,233.2994 Q210.5013,230.1744 211.8138,228.5181 Q213.142,226.8619 215.642,226.8619 Q216.3451,226.8619 216.9857,227.0181 Q217.642,227.1744 218.2045,227.4713 L218.2045,230.19 Q217.5795,229.6119 216.9857,229.3463 Q216.392,229.065 215.767,229.065 Q214.4232,229.065 213.7357,230.1431 Q213.0482,231.2056 213.0482,233.2994 Q213.0482,235.3931 213.7357,236.4713 Q214.4232,237.5338 215.767,237.5338 Q216.392,237.5338 216.9857,237.2681 Q217.5795,236.9869 218.2045,236.4088 L218.2045,239.1275 Z " fill="#000000"/><text fill="#000000" font-family="sans-serif" font-size="14" lengthAdjust="spacing" textLength="83.8633" x="233.237" y="238.3336">BaseStation</text><line style="stroke:#181818;stroke-width:0.5;" x1="183.23" x2="337.106" y1="249.4869" y2="249.4869"/><ellipse cx="193.23" cy="263.1353" fill="none" rx="3" ry="3" style="stroke:#038048;stroke-width:1;"/><text fill="#000000" font-family="sans-serif" font-size="14" lengthAdjust="spacing" textLength="62.1318" x="202.23" y="266.482">id: string</text><ellipse cx="193.23" cy="279.4322" fill="none" rx="3" ry="3" style="stroke:#038048;stroke-width:1;"/><text fill="#000000" font-family="sans-serif" font-size="14" lengthAdjust="spacing" textLength="85.1963" x="202.23" y="282.7789">pos: float[3]</text><ellipse cx="193.23" cy="295.7291" fill="none" rx="3" ry="3" style="stroke:#038048;stroke-width:1;"/><text fill="#000000" font-family="sans-serif" font-size="14" lengthAdjust="spacing" textLength="129.876" x="202.23" y="299.0757">tx_power_dbm: int</text><ellipse cx="193.23" cy="312.0259" fill="none" rx="3" ry="3" style="stroke:#038048;stroke-width:1;"/><text fill="#000000" font-family="sans-serif" font-size="14" lengthAdjust="spacing" textLength="84.5811" x="202.23" y="315.3726">band: string</text><line style="stroke:#181818;stroke-width:0.5;" x1="183.23" x2="337.106" y1="322.6744" y2="322.6744"/></g><!--class NetworkParams--><g class="entity" data-entity="NetworkParams" data-source-line="24" data-uid="ent0005" id="entity_NetworkParams"><rect fill="#F1F1F1" height="96.8906" rx="2.5" ry="2.5" style="stroke:#181818;stroke-width:0.5;" width="164.0928" x="373.12" y="225.6369"/><ellipse cx="397.7278" cy="241.6369" fill="#ADD1B2" rx="11" ry="11" style="stroke:#181818;stroke-width:1;"/><path d="M400.6965,247.2775 Q400.1184,247.5744 399.4778,247.715 Q398.8371,247.8712 398.134,247.8712 Q395.634,247.8712 394.3059,246.2306 Q392.9934,244.5744 392.9934,241.4494 Q392.9934,238.3244 394.3059,236.6681 Q395.634,235.0119 398.134,235.0119 Q398.8371,235.0119 399.4778,235.1681 Q400.134,235.3244 400.6965,235.6212 L400.6965,238.34 Q400.0715,237.7619 399.4778,237.4962 Q398.884,237.215 398.259,237.215 Q396.9153,237.215 396.2278,238.2931 Q395.5403,239.3556 395.5403,241.4494 Q395.5403,243.5431 396.2278,244.6212 Q396.9153,245.6837 398.259,245.6837 Q398.884,245.6837 399.4778,245.4181 Q400.0715,245.1369 400.6965,244.5587 L400.6965,247.2775 Z " fill="#000000"/><text fill="#000000" font-family="sans-serif" font-size="14" lengthAdjust="spacing" textLength="110.7422" x="413.8628" y="246.4836">NetworkParams</text><line style="stroke:#181818;stroke-width:0.5;" x1="374.12" x2="536.2128" y1="257.6369" y2="257.6369"/><ellipse cx="384.12" cy="271.2853" fill="none" rx="3" ry="3" style="stroke:#038048;stroke-width:1;"/><text fill="#000000" font-family="sans-serif" font-size="14" lengthAdjust="spacing" textLength="84.5811" x="393.12" y="274.632">band: string</text><ellipse cx="384.12" cy="287.5822" fill="none" rx="3" ry="3" style="stroke:#038048;stroke-width:1;"/><text fill="#000000" font-family="sans-serif" font-size="14" lengthAdjust="spacing" textLength="129.876" x="393.12" y="290.9289">tx_power_dbm: int</text><ellipse cx="384.12" cy="303.8791" fill="none" rx="3" ry="3" style="stroke:#038048;stroke-width:1;"/><text fill="#000000" font-family="sans-serif" font-size="14" lengthAdjust="spacing" textLength="138.0928" x="393.12" y="307.2257">bandwidth_mhz: int</text><line style="stroke:#181818;stroke-width:0.5;" x1="374.12" x2="536.2128" y1="314.5275" y2="314.5275"/></g><!--class Runtime--><g class="entity" data-entity="Runtime" data-source-line="30" data-uid="ent0006" id="entity_Runtime"><rect fill="#F1F1F1" height="80.5938" rx="2.5" ry="2.5" style="stroke:#181818;stroke-width:0.5;" width="177.416" x="572.46" y="233.7869"/><ellipse cx="627.3663" cy="249.7869" fill="#ADD1B2" rx="11" ry="11" style="stroke:#181818;stroke-width:1;"/><path d="M630.335,255.4275 Q629.7569,255.7244 629.1163,255.865 Q628.4756,256.0213 627.7725,256.0213 Q625.2725,256.0213 623.9444,254.3806 Q622.6319,252.7244 622.6319,249.5994 Q622.6319,246.4744 623.9444,244.8181 Q625.2725,243.1619 627.7725,243.1619 Q628.4756,243.1619 629.1163,243.3181 Q629.7725,243.4744 630.335,243.7713 L630.335,246.49 Q629.71,245.9119 629.1163,245.6463 Q628.5225,245.365 627.8975,245.365 Q626.5538,245.365 625.8663,246.4431 Q625.1788,247.5056 625.1788,249.5994 Q625.1788,251.6931 625.8663,252.7713 Q626.5538,253.8338 627.8975,253.8338 Q628.5225,253.8338 629.1163,253.5681 Q629.71,253.2869 630.335,252.7088 L630.335,255.4275 Z " fill="#000000"/><text fill="#000000" font-family="sans-serif" font-size="14" lengthAdjust="spacing" textLength="59.1035" x="647.8663" y="254.6336">Runtime</text><line style="stroke:#181818;stroke-width:0.5;" x1="573.46" x2="748.876" y1="265.7869" y2="265.7869"/><ellipse cx="583.46" cy="279.4353" fill="none" rx="3" ry="3" style="stroke:#038048;stroke-width:1;"/><text fill="#000000" font-family="sans-serif" font-size="14" lengthAdjust="spacing" textLength="100.625" x="592.46" y="282.782">duration_s: int</text><ellipse cx="583.46" cy="295.7322" fill="none" rx="3" ry="3" style="stroke:#038048;stroke-width:1;"/><text fill="#000000" font-family="sans-serif" font-size="14" lengthAdjust="spacing" textLength="151.416" x="592.46" y="299.0789">update_interval_s: int</text><line style="stroke:#181818;stroke-width:0.5;" x1="573.46" x2="748.876" y1="306.3806" y2="306.3806"/></g><!--reverse link Scenario to Drone--><g class="link" data-entity-1="Scenario" data-entity-2="Drone" data-source-line="35" data-uid="lnk7" id="link_Scenario_Drone"><path codeLine="35" d="M252.885,164.119 C221.625,182.909 196.96,197.8769 165.17,217.4869 C159.48,220.9969 153.59,224.6569 147.69,228.3469" fill="none" id="Scenario-backto-Drone" style="stroke:#181818;stroke-width:1;"/><polygon fill="#181818" points="263.17,157.9369,255.9668,157.5996,252.885,164.119,260.0882,164.4563,263.17,157.9369" style="stroke:#181818;stroke-width:1;"/><text fill="#000000" font-family="sans-serif" font-size="13" lengthAdjust="spacing" textLength="8.271" x="243.8544" y="177.4746">1</text><text fill="#000000" font-family="sans-serif" font-size="13" lengthAdjust="spacing" textLength="6.5" x="155.2976" y="219.9309">*</text></g><!--reverse link Scenario to BaseStation--><g class="link" data-entity-1="Scenario" data-entity-2="BaseStation" data-source-line="36" data-uid="lnk8" id="link_Scenario_BaseStation"><path codeLine="36" d="M319.493,168.3867 C308.713,187.4067 302.6,198.1969 291.84,217.1969" fill="none" id="Scenario-backto-BaseStation" style="stroke:#181818;stroke-width:1;"/><polygon fill="#181818" points="325.41,157.9469,318.9716,161.1944,319.493,168.3867,325.9314,165.1391,325.41,157.9469" style="stroke:#181818;stroke-width:1;"/><text fill="#000000" font-family="sans-serif" font-size="13" lengthAdjust="spacing" textLength="8.271" x="313.2909" y="177.4858">1</text><text fill="#000000" font-family="sans-serif" font-size="13" lengthAdjust="spacing" textLength="6.5" x="289.3649" y="206.4251">*</text></g><!--reverse link Scenario to NetworkParams--><g class="link" data-entity-1="Scenario" data-entity-2="NetworkParams" data-source-line="37" data-uid="lnk9" id="link_Scenario_NetworkParams"><path codeLine="37" d="M395.2214,168.3614 C407.6714,190.1114 415.81,204.3369 427.77,225.2269" fill="none" id="Scenario-backto-NetworkParams" style="stroke:#181818;stroke-width:1;"/><polygon fill="none" points="389.26,157.9469,388.7692,165.1413,395.2214,168.3614,395.7122,161.167,389.26,157.9469" style="stroke:#181818;stroke-width:1;"/></g><!--reverse link Scenario to Runtime--><g class="link" data-entity-1="Scenario" data-entity-2="Runtime" data-source-line="38" data-uid="lnk10" id="link_Scenario_Runtime"><path codeLine="38" d="M467.1662,163.8349 C510.9762,188.5049 550.96,211.0169 590.77,233.4469" fill="none" id="Scenario-backto-Runtime" style="stroke:#181818;stroke-width:1;"/><polygon fill="none" points="456.71,157.9469,459.9754,164.3763,467.1662,163.8349,463.9008,157.4055,456.71,157.9469" style="stroke:#181818;stroke-width:1;"/></g><!--SRC=[VP4zJyD038Rt_0ehOr47n9QDZuK5LUrOePFRSwb5xYwwSmW2yTznaZOV8c8wsQ_zlBPFM4g2nn09xZVFO54GNB1KPjcnn9HWToIFaGDyPm0tR0j84jc_jP73oaGwJLC7J6IIe73mgO073NTzj7zjTHk39nMUsbTJFrUVBh5amfx5L45xJcL0sTzr7CSfANHQM654fsKwrOYT3B04_yELJ_LgA1fxS0MmbtufFtODw1UI9iJtJMVRmsU5_z4Qjd8sxlpLPmVcjlR2xd87MyTkS9E6thhI7oAZ4SKFBA-AzW__bD_ci5gl8L_b_L6NfSbXneAWucojkNIPxXS0]--></g></svg>