<svg xmlns="http://www.w3.org/2000/svg" xmlns:xlink="http://www.w3.org/1999/xlink" contentStyleType="text/css" data-diagram-type="DESCRIPTION" height="725px" preserveAspectRatio="none" style="width:1296px;height:725px;background:#FFFFFF;" version="1.1" viewBox="0 0 1296 725" width="1296px" zoomAndPan="magnify"><title>Deployment topology</title><defs/><g><g class="title" data-source-line="1"><text fill="#000000" font-family="sans-serif" font-size="14" font-weight="bold" lengthAdjust="spacing" textLength="169.8115" x="556.1617" y="22.9951">Deployment topology</text></g><!--cluster Dev--><g class="cluster" data-entity="Dev" data-source-line="2" data-uid="ent0002" id="cluster_Dev"><polygon fill="none" points="725.67,53.2969,735.67,43.2969,941.67,43.2969,941.67,293.0369,931.67,303.0369,725.67,303.0369,725.67,53.2969" style="stroke:#181818;stroke-width:1;"/><line style="stroke:#181818;stroke-width:1;" x1="931.67" x2="941.67" y1="53.2969" y2="43.2969"/><line style="stroke:#181818;stroke-width:1;" x1="725.67" x2="931.67" y1="53.2969" y2="53.2969"/><line style="stroke:#181818;stroke-width:1;" x1="931.67" x2="931.67" y1="53.2969" y2="303.0369"/><text fill="#000000" font-family="sans-serif" font-size="14" font-weight="bold" lengthAdjust="spacing" textLength="140.1709" x="759.5846" y="69.292">Developer Laptop</text></g><!--cluster Edge--><g class="cluster" data-entity="Edge" data-source-line="7" data-uid="ent0005" id="cluster_Edge"><polygon fill="none" points="978.67,202.5969,988.67,192.5969,1222.67,192.5969,1222.67,301.1869,1212.67,311.1869,978.67,311.1869,978.67,202.5969" style="stroke:#181818;stroke-width:1;"/><line style="stroke:#181818;stroke-width:1;" x1="1212.67" x2="1222.67" y1="202.5969" y2="192.5969"/><line style="stroke:#181818;stroke-width:1;" x1="978.67" x2="1212.67" y1="202.5969" y2="202.5969"/><line style="stroke:#181818;stroke-width:1;" x1="1212.67" x2="1212.67" y1="202.5969" y2="311.1869"/><text fill="#000000" font-family="sans-serif" font-size="14" font-weight="bold" lengthAdjust="spacing" textLength="87.7324" x="1052.8038" y="218.592">Edge / MEC</text></g><!--cluster Cloud--><g class="cluster" data-entity="Cloud" data-source-line="11" data-uid="ent0007" id="cluster_Cloud"><polygon fill="none" points="744.67,370.1869,754.67,360.1869,1039.67,360.1869,1039.67,698.0769,1029.67,708.0769,744.67,708.0769,744.67,370.1869" style="stroke:#181818;stroke-width:1;"/><line style="stroke:#181818;stroke-width:1;" x1="1029.67" x2="1039.67" y1="370.1869" y2="360.1869"/><line style="stroke:#181818;stroke-width:1;" x1="744.67" x2="1029.67" y1="370.1869" y2="370.1869"/><line style="stroke:#181818;stroke-width:1;" x1="1029.67" x2="1029.67" y1="370.1869" y2="708.0769"/><text fill="#000000" font-family="sans-serif" font-size="14" font-weight="bold" lengthAdjust="spacing" textLength="154.4512" x="810.9444" y="386.182">Cloud / Data Center</text></g><!--entity LF--><g class="entity" data-entity="LF" data-source-line="3" data-uid="ent0003" id="entity_LF"><rect fill="#F1F1F1" height="46.2969" rx="2.5" ry="2.5" style="stroke:#181818;stroke-width:0.5;" width="144.0908" x="742.62" y="83.2969"/><rect fill="#F1F1F1" height="10" style="stroke:#181818;stroke-width:0.5;" width="15" x="866.7108" y="88.2969"/><rect fill="#F1F1F1" height="2" style="stroke:#181818;stroke-width:0.5;" width="4" x="864.7108" y="90.2969"/><rect fill="#F1F1F1" height="2" style="stroke:#181818;stroke-width:0.5;" width="4" x="864.7108" y="94.2969"/><text fill="#000000" font-family="sans-serif" font-size="14" lengthAdjust="spacing" textLength="104.0908" x="757.62" y="116.292">Local Frontend</text></g><!--entity LB--><g class="entity" data-entity="LB" data-source-line="4" data-uid="ent0004" id="entity_LB"><rect fill="#F1F1F1" height="46.2969" rx="2.5" ry="2.5" style="stroke:#181818;stroke-width:0.5;" width="182.502" x="742.42" y="240.7369"/><rect fill="#F1F1F1" height="10" style="stroke:#181818;stroke-width:0.5;" width="15" x="904.922" y="245.7369"/><rect fill="#F1F1F1" height="2" style="stroke:#181818;stroke-width:0.5;" width="4" x="902.922" y="247.7369"/><rect fill="#F1F1F1" height="2" style="stroke:#181818;stroke-width:0.5;" width="4" x="902.922" y="251.7369"/><text fill="#000000" font-family="sans-serif" font-size="14" lengthAdjust="spacing" textLength="142.502" x="757.42" y="273.732">Local Backend (dev)</text></g><!--entity EN--><g class="entity" data-entity="EN" data-source-line="8" data-uid="ent0006" id="entity_EN"><rect fill="#F1F1F1" height="62.5938" rx="2.5" ry="2.5" style="stroke:#181818;stroke-width:0.5;" width="212.3203" x="994.51" y="232.5969"/><rect fill="#F1F1F1" height="10" style="stroke:#181818;stroke-width:0.5;" width="15" x="1186.8303" y="237.5969"/><rect fill="#F1F1F1" height="2" style="stroke:#181818;stroke-width:0.5;" width="4" x="1184.8303" y="239.5969"/><rect fill="#F1F1F1" height="2" style="stroke:#181818;stroke-width:0.5;" width="4" x="1184.8303" y="243.5969"/><text fill="#000000" font-family="sans-serif" font-size="14" lengthAdjust="spacing" textLength="76.2207" x="1009.51" y="265.592">Edge Node</text><text fill="#000000" font-family="sans-serif" font-size="14" lengthAdjust="spacing" textLength="172.3203" x="1009.51" y="281.8889">(Ray Worker / Inference)</text></g><!--entity RH--><g class="entity" data-entity="RH" data-source-line="12" data-uid="ent0008" id="entity_RH"><rect fill="#F1F1F1" height="46.2969" rx="2.5" ry="2.5" style="stroke:#181818;stroke-width:0.5;" width="107.6484" x="915.85" y="400.1869"/><rect fill="#F1F1F1" height="10" style="stroke:#181818;stroke-width:0.5;" width="15" x="1003.4984" y="405.1869"/><rect fill="#F1F1F1" height="2" style="stroke:#181818;stroke-width:0.5;" width="4" x="1001.4984" y="407.1869"/><rect fill="#F1F1F1" height="2" style="stroke:#181818;stroke-width:0.5;" width="4" x="1001.4984" y="411.1869"/><text fill="#000000" font-family="sans-serif" font-size="14" lengthAdjust="spacing" textLength="67.6484" x="930.85" y="433.182">Ray Head</text></g><!--entity RWP--><g class="entity" data-entity="RWP" data-source-line="13" data-uid="ent0009" id="entity_RWP"><rect fill="#F1F1F1" height="46.2969" rx="2.5" ry="2.5" style="stroke:#181818;stroke-width:0.5;" width="155.5957" x="834.87" y="523.4869"/><rect fill="#F1F1F1" height="10" style="stroke:#181818;stroke-width:0.5;" width="15" x="970.4657" y="528.4869"/><rect fill="#F1F1F1" height="2" style="stroke:#181818;stroke-width:0.5;" width="4" x="968.4657" y="530.4869"/><rect fill="#F1F1F1" height="2" style="stroke:#181818;stroke-width:0.5;" width="4" x="968.4657" y="534.4869"/><text fill="#000000" font-family="sans-serif" font-size="14" lengthAdjust="spacing" textLength="115.5957" x="849.87" y="556.482">Ray Worker Pool</text></g><!--entity OBJ--><g class="entity" data-entity="OBJ" data-source-line="14" data-uid="ent0010" id="entity_OBJ"><path d="M838.26,656.7769 C838.26,646.7769 900.6711,646.7769 900.6711,646.7769 C900.6711,646.7769 963.0823,646.7769 963.0823,656.7769 L963.0823,682.0738 C963.0823,692.0738 900.6711,692.0738 900.6711,692.0738 C900.6711,692.0738 838.26,692.0738 838.26,682.0738 L838.26,656.7769" fill="#F1F1F1" style="stroke:#181818;stroke-width:0.5;"/><path d="M838.26,656.7769 C838.26,666.7769 900.6711,666.7769 900.6711,666.7769 C900.6711,666.7769 963.0823,666.7769 963.0823,656.7769" fill="none" style="stroke:#181818;stroke-width:0.5;"/><text fill="#000000" font-family="sans-serif" font-size="14" lengthAdjust="spacing" textLength="104.8223" x="848.26" y="683.772">Object Storage</text></g><!--entity DB--><g class="entity" data-entity="DB" data-source-line="15" data-uid="ent0011" id="entity_DB"><path d="M760.52,410.6869 C760.52,400.6869 820.6684,400.6869 820.6684,400.6869 C820.6684,400.6869 880.8169,400.6869 880.8169,410.6869 L880.8169,435.9838 C880.8169,445.9838 820.6684,445.9838 820.6684,445.9838 C820.6684,445.9838 760.52,445.9838 760.52,435.9838 L760.52,410.6869" fill="#F1F1F1" style="stroke:#181818;stroke-width:0.5;"/><path d="M760.52,410.6869 C760.52,420.6869 820.6684,420.6869 820.6684,420.6869 C820.6684,420.6869 880.8169,420.6869 880.8169,410.6869" fill="none" style="stroke:#181818;stroke-width:0.5;"/><text fill="#000000" font-family="sans-serif" font-size="14" lengthAdjust="spacing" textLength="100.2969" x="770.52" y="437.682">DB / Metadata</text></g><g class="entity" data-entity="GMN18" data-source-line="25" data-uid="ent0019" id="entity_GMN18"><path d="M6,410.7669 L6,435.8997 L329.3389,435.8997 L329.3389,420.7669 L319.3389,410.7669 L6,410.7669" fill="#FEFFDD" style="stroke:#181818;stroke-width:0.5;"/><path d="M319.3389,410.7669 L319.3389,420.7669 L329.3389,420.7669 L319.3389,410.7669" fill="#FEFFDD" style="stroke:#181818;stroke-width:1;"/><text fill="#000000" font-family="sans-serif" font-size="13" lengthAdjust="spacing" textLength="302.3389" x="12" y="427.8338">Single-machine dev: all components on laptop</text></g><g class="entity" data-entity="GMN21" data-source-line="26" data-uid="ent0022" id="entity_GMN21"><path d="M364.06,410.7669 L364.06,435.8997 L725.288,435.8997 L725.288,420.7669 L715.288,410.7669 L364.06,410.7669" fill="#FEFFDD" style="stroke:#181818;stroke-width:0.5;"/><path d="M715.288,410.7669 L715.288,420.7669 L725.288,420.7669 L715.288,410.7669" fill="#FEFFDD" style="stroke:#181818;stroke-width:1;"/><text fill="#000000" font-family="sans-serif" font-size="13" lengthAdjust="spacing" textLength="340.228" x="370.06" y="427.8338">Prod: head in control plane, workers on many nodes</text></g><!--link LF to LB--><g class="link" data-entity-1="LF" data-entity-2="LB" data-source-line="18" data-uid="lnk12" id="link_LF_LB"><path d="M817.43,130.0469 C821.03,159.5169 826.5727,204.8211 830.1727,234.3011" fill="none" id="LF-to-LB" style="stroke:#181818;stroke-width:1;"/><polygon fill="#181818" points="830.9,240.2569,833.7796,230.8384,830.2939,235.2937,825.8385,231.8081,830.9,240.2569" style="stroke:#181818;stroke-width:1;"/><text fill="#000000" font-family="sans-serif" font-size="13" lengthAdjust="spacing" textLength="119.2217" x="823.67" y="172.6638">HTTP / WebSocket</text></g><!--link LB to RH--><g class="link" data-entity-1="LB" data-entity-2="RH" data-source-line="19" data-uid="lnk13" id="link_LB_RH"><path d="M865.62,287.3869 C880.03,298.4169 896.68,312.4769 909.67,327.1869 C929.58,349.7269 944.3978,374.3082 955.3178,394.5182" fill="none" id="LB-to-RH" style="stroke:#181818;stroke-width:1;"/><polygon fill="#181818" points="958.17,399.7969,957.4108,389.9773,955.7931,395.3979,950.3725,393.7803,958.17,399.7969" style="stroke:#181818;stroke-width:1;"/><text fill="#000000" font-family="sans-serif" font-size="13" lengthAdjust="spacing" textLength="110.6396" x="923.67" y="340.2538">submit jobs (ray)</text></g><!--link RH to RWP--><g class="link" data-entity-1="RH" data-entity-2="RWP" data-source-line="20" data-uid="lnk14" id="link_RH_RWP"><path d="M959.08,446.8669 C948.84,468.6569 935.9726,496.0469 925.7526,517.7869" fill="none" id="RH-to-RWP" style="stroke:#181818;stroke-width:1;"/><polygon fill="#181818" points="923.2,523.2169,930.6489,516.7737,925.3272,518.6919,923.409,513.3702,923.2,523.2169" style="stroke:#181818;stroke-width:1;"/><text fill="#000000" font-family="sans-serif" font-size="13" lengthAdjust="spacing" textLength="96.5288" x="944.67" y="489.5538">schedule tasks</text></g><!--link RWP to OBJ--><g class="link" data-entity-1="RWP" data-entity-2="OBJ" data-source-line="21" data-uid="lnk15" id="link_RWP_OBJ"><path d="M910.44,570.0669 C908.27,591.9069 905.5929,618.8962 903.4429,640.5462" fill="none" id="RWP-to-OBJ" style="stroke:#181818;stroke-width:1;"/><polygon fill="#181818" points="902.85,646.5169,907.7198,637.9562,903.3441,641.5413,899.759,637.1656,902.85,646.5169" style="stroke:#181818;stroke-width:1;"/><text fill="#000000" font-family="sans-serif" font-size="13" lengthAdjust="spacing" textLength="121.437" x="907.67" y="612.8438">store large objects</text></g><!--link LB to DB--><g class="link" data-entity-1="LB" data-entity-2="DB" data-source-line="22" data-uid="lnk16" id="link_LB_DB"><path d="M826.43,287.4069 C823.03,299.1269 819.36,313.7769 817.67,327.1869 C814.52,352.1069 815.5959,375.0044 817.4559,394.3544" fill="none" id="LB-to-DB" style="stroke:#181818;stroke-width:1;"/><polygon fill="#181818" points="818.03,400.3269,821.1505,390.9854,817.5516,395.3498,813.1872,391.7509,818.03,400.3269" style="stroke:#181818;stroke-width:1;"/><text fill="#000000" font-family="sans-serif" font-size="13" lengthAdjust="spacing" textLength="86.9565" x="818.67" y="340.2538">job metadata</text></g><!--link EN to RH--><g class="link" data-entity-1="EN" data-entity-2="RH" data-source-line="23" data-uid="lnk17" id="link_EN_RH"><path d="M1089.09,295.5669 C1082.41,311.0269 1073.08,329.5469 1061.67,344.1869 C1044.93,365.6769 1026.2576,381.8937 1007.2176,396.1937" fill="none" id="EN-to-RH" style="stroke:#181818;stroke-width:1;"/><polygon fill="#181818" points="1002.42,399.7969,1012.0185,397.5904,1006.418,396.7942,1007.2142,391.1937,1002.42,399.7969" style="stroke:#181818;stroke-width:1;"/><text fill="#000000" font-family="sans-serif" font-size="13" lengthAdjust="spacing" textLength="215.4648" x="1072.67" y="340.2538">optional local worker registration</text></g><!--link GMN18 to DB--><g class="link" data-entity-1="GMN18" data-entity-2="DB" data-source-line="25" data-uid="lnk20" id="link_GMN18_DB"><path d="M188.75,410.3369 C223.67,389.6569 296.4,350.1169 364.17,335.6869 C403.4,327.3369 687.79,321.1369 725.17,335.6869 C758.3,348.5869 786.92,378.9469 803.97,400.3069" fill="none" id="GMN18-DB" style="stroke:#181818;stroke-width:1;stroke-dasharray:7,7;"/></g><!--link GMN18 to GMN21--><g class="link" data-entity-1="GMN18" data-entity-2="GMN21" data-source-line="26" data-uid="lnk23" id="link_GMN18_GMN21"><path d="M329.66,423.3369 C341,423.3369 352.34,423.3369 363.68,423.3369" fill="none" id="GMN18-GMN21" style="stroke:#181818;stroke-width:1;stroke-dasharray:7,7;"/></g><!--SRC=[RLBBRi903BpdAonE81Nrpg4728XM52AenAKN9p4XPREETWrLLFNVwzrGeJwEyOndPiUHMWn1IgtXhY4h8DoouQfBB9S4WvGkPBWb1oji5Hi0UgLVu2C1ABXfsOQjmOeBDB1mR8Li6LchnN-KAHOdPS2mfCkevqsJp-HgDoyhWdjudiyY53z_ESNPMjclThZ53lRiJXhl7XxjWHpPWdhP-VecEpDyBfMIeY3CL8PSvFJpNmP1T4dOFsAx_0jU7JDcqtFscP9ArSxHgzicVwD2O2ViiA98sKoVVb3IQNWb2OPHtsbiORM0yVX1Au49B5zUCcNjAT-nTYQ9JWEuNIheptbJ2xnnxc7ei1ibEexeFWjmSQJoh9SLz2UVX640DKO0DHY1GQT5SipglxNJOAoYq5op9VFrpPHRgTdg4KqyvNlVWwEgzk8mOA5mKMqwo0HsjQqCZHiiZhKbq8DF08svrUc1hUO8_rM_v-hgg8kPut82Hxq1r5RfLXmRQ0rQkhkwnjK6RGVXmluB]--></g></svg>