<svg xmlns="http://www.w3.org/2000/svg" xmlns:xlink="http://www.w3.org/1999/xlink" contentStyleType="text/css" data-diagram-type="DESCRIPTION" height="185px" preserveAspectRatio="none" style="width:1538px;height:185px;background:#FFFFFF;" version="1.1" viewBox="0 0 1538 185" width="1538px" zoomAndPan="magnify"><title>ML pipeline (edge-cloud)</title><defs/><g><g class="title" data-source-line="1"><text fill="#000000" font-family="sans-serif" font-size="14" font-weight="bold" lengthAdjust="spacing" textLength="196.3418" x="663.9099" y="22.9951">ML pipeline (edge-cloud)</text></g><!--entity EdgeNode--><g class="entity" data-entity="EdgeNode" data-source-line="3" data-uid="ent0002" id="entity_EdgeNode"><ellipse cx="41.8853" cy="112.4469" fill="#F1F1F1" rx="8" ry="8" style="stroke:#181818;stroke-width:0.5;"/><path d="M41.8853,120.4469 L41.8853,147.4469 M28.8853,128.4469 L54.8853,128.4469 M41.8853,147.4469 L28.8853,162.4469 M41.8853,147.4469 L54.8853,162.4469" fill="none" style="stroke:#181818;stroke-width:0.5;"/><text fill="#000000" font-family="sans-serif" font-size="14" lengthAdjust="spacing" textLength="71.7705" x="6" y="176.942">EdgeNode</text></g><!--entity Cloud--><g class="entity" data-entity="Cloud" data-source-line="4" data-uid="ent0003" id="entity_Cloud"><ellipse cx="1030.8851" cy="112.4469" fill="#F1F1F1" rx="8" ry="8" style="stroke:#181818;stroke-width:0.5;"/><path d="M1030.8851,120.4469 L1030.8851,147.4469 M1017.8851,128.4469 L1043.8851,128.4469 M1030.8851,147.4469 L1017.8851,162.4469 M1030.8851,147.4469 L1043.8851,162.4469" fill="none" style="stroke:#181818;stroke-width:0.5;"/><text fill="#000000" font-family="sans-serif" font-size="14" lengthAdjust="spacing" textLength="39.9902" x="1010.89" y="176.942">Cloud</text></g><!--entity FeatureStore--><g class="entity" data-entity="FeatureStore" data-source-line="5" data-uid="ent0004" id="entity_FeatureStore"><path d="M272.24,129.4469 C272.24,119.4469 327.8836,119.4469 327.8836,119.4469 C327.8836,119.4469 383.5271,119.4469 383.5271,129.4469 L383.5271,154.7437 C383.5271,164.7437 327.8836,164.7437 327.8836,164.7437 C327.8836,164.7437 272.24,164.7437 272.24,154.7437 L272.24,129.4469" fill="#F1F1F1" style="stroke:#181818;stroke-width:0.5;"/><path d="M272.24,129.4469 C272.24,139.4469 327.8836,139.4469 327.8836,139.4469 C327.8836,139.4469 383.5271,139.4469 383.5271,129.4469" fill="none" style="stroke:#181818;stroke-width:0.5;"/><text fill="#000000" font-family="sans-serif" font-size="14" lengthAdjust="spacing" textLength="91.2871" x="282.24" y="156.442">FeatureStore</text></g><!--entity EM--><g class="entity" data-entity="EM" data-source-line="6" data-uid="ent0005" id="entity_EM"><rect fill="#F1F1F1" height="46.2969" rx="2.5" ry="2.5" style="stroke:#181818;stroke-width:0.5;" width="204.5615" x="1327.6" y="118.9469"/><rect fill="#F1F1F1" height="10" style="stroke:#181818;stroke-width:0.5;" width="15" x="1512.1615" y="123.9469"/><rect fill="#F1F1F1" height="2" style="stroke:#181818;stroke-width:0.5;" width="4" x="1510.1615" y="125.9469"/><rect fill="#F1F1F1" height="2" style="stroke:#181818;stroke-width:0.5;" width="4" x="1510.1615" y="129.9469"/><text fill="#000000" font-family="sans-serif" font-size="14" lengthAdjust="spacing" textLength="164.5615" x="1342.6" y="151.942">Edge Model (LightGBM)</text></g><!--entity CM--><g class="entity" data-entity="CM" data-source-line="7" data-uid="ent0006" id="entity_CM"><rect fill="#F1F1F1" height="46.2969" rx="2.5" ry="2.5" style="stroke:#181818;stroke-width:0.5;" width="228.1592" x="556.81" y="118.9469"/><rect fill="#F1F1F1" height="10" style="stroke:#181818;stroke-width:0.5;" width="15" x="764.9692" y="123.9469"/><rect fill="#F1F1F1" height="2" style="stroke:#181818;stroke-width:0.5;" width="4" x="762.9692" y="125.9469"/><rect fill="#F1F1F1" height="2" style="stroke:#181818;stroke-width:0.5;" width="4" x="762.9692" y="129.9469"/><text fill="#000000" font-family="sans-serif" font-size="14" lengthAdjust="spacing" textLength="188.1592" x="571.81" y="151.942">Cloud Model (Transformer)</text></g><!--entity Ops--><g class="entity" data-entity="Ops" data-source-line="15" data-uid="ent0013" id="entity_Ops"><ellipse cx="1278.8901" cy="112.4469" fill="#F1F1F1" rx="8" ry="8" style="stroke:#181818;stroke-width:0.5;"/><path d="M1278.8901,120.4469 L1278.8901,147.4469 M1265.8901,128.4469 L1291.8901,128.4469 M1278.8901,147.4469 L1265.8901,162.4469 M1278.8901,147.4469 L1291.8901,162.4469" fill="none" style="stroke:#181818;stroke-width:0.5;"/><text fill="#000000" font-family="sans-serif" font-size="14" lengthAdjust="spacing" textLength="27.2002" x="1265.29" y="176.942">Ops</text></g><!--link EdgeNode to EM--><g class="link" data-entity-1="EdgeNode" data-entity-2="EM" data-source-line="9" data-uid="lnk7" id="link_EdgeNode_EM"><path d="M78.23,134.0869 C120.46,125.1269 192.35,110.9469 254.89,103.9469 C617.6,63.3469 711.36,43.2969 1075.39,69.7269 C1180.44,77.3469 1207.25,80.3069 1309.89,103.9469 C1327.03,107.8969 1339.5366,111.3361 1356.4766,116.6661" fill="none" id="EdgeNode-to-EM" style="stroke:#181818;stroke-width:1;"/><polygon fill="#181818" points="1362.2,118.4669,1354.8155,111.9501,1357.4305,116.9662,1352.4144,119.5813,1362.2,118.4669" style="stroke:#181818;stroke-width:1;"/><text fill="#000000" font-family="sans-serif" font-size="13" lengthAdjust="spacing" textLength="71.0747" x="1003.39" y="70.0138">ingest KPIs</text></g><!--link EM to EdgeNode--><g class="link" data-entity-1="EM" data-entity-2="EdgeNode" data-source-line="10" data-uid="lnk8" id="link_EM_EdgeNode"><path d="M1362.2,118.4669 C1345.26,113.1369 1327.03,107.8969 1309.89,103.9469 C1207.25,80.3069 1180.44,77.3469 1075.39,69.7269 C711.36,43.2969 617.6,63.3469 254.89,103.9469 C192.35,110.9469 126.3293,123.8816 84.0993,132.8416" fill="none" id="EM-to-EdgeNode" style="stroke:#181818;stroke-width:1;"/><polygon fill="#181818" points="78.23,134.0869,87.8642,136.1318,83.1211,133.0491,86.2038,128.306,78.23,134.0869" style="stroke:#181818;stroke-width:1;"/><text fill="#000000" font-family="sans-serif" font-size="13" lengthAdjust="spacing" textLength="160.6909" x="958.89" y="70.0138">anomaly / low-level alert</text></g><!--link EdgeNode to FeatureStore--><g class="link" data-entity-1="EdgeNode" data-entity-2="FeatureStore" data-source-line="11" data-uid="lnk9" id="link_EdgeNode_FeatureStore"><path d="M78.11,142.0969 C126.96,142.0969 208.43,142.0969 265.82,142.0969" fill="none" id="EdgeNode-to-FeatureStore" style="stroke:#181818;stroke-width:1;"/><polygon fill="#181818" points="271.82,142.0969,262.82,138.0969,266.82,142.0969,262.82,146.0969,271.82,142.0969" style="stroke:#181818;stroke-width:1;"/><text fill="#000000" font-family="sans-serif" font-size="13" lengthAdjust="spacing" textLength="158.3486" x="96.01" y="135.1638">upload features + alerts</text></g><!--link Cloud to CM--><g class="link" data-entity-1="Cloud" data-entity-2="CM" data-source-line="12" data-uid="lnk10" id="link_Cloud_CM"><path d="M1010.73,155.0169 C1005.18,157.9269 999,160.5969 992.93,162.0969 C951.94,172.2369 845.03,165.2669 802.93,162.0969 C797.15,161.6669 797.2068,161.7576 791.2468,161.1276" fill="none" id="Cloud-to-CM" style="stroke:#181818;stroke-width:1;"/><polygon fill="#181818" points="785.28,160.4969,793.8097,165.4208,790.2523,161.0225,794.6506,157.4651,785.28,160.4969" style="stroke:#181818;stroke-width:1;"/><text fill="#000000" font-family="sans-serif" font-size="13" lengthAdjust="spacing" textLength="188.1636" x="803.93" y="158.1638">train / update model (offline)</text></g><!--link CM to Cloud--><g class="link" data-entity-1="CM" data-entity-2="Cloud" data-source-line="14" data-uid="lnk12" id="link_CM_Cloud"><path d="M785.29,142.0969 C866.4,142.0969 962.12,142.0969 1004.69,142.0969" fill="none" id="CM-to-Cloud" style="stroke:#181818;stroke-width:1;"/><polygon fill="#181818" points="1010.69,142.0969,1001.69,138.0969,1005.69,142.0969,1001.69,146.0969,1010.69,142.0969" style="stroke:#181818;stroke-width:1;"/><text fill="#000000" font-family="sans-serif" font-size="13" lengthAdjust="spacing" textLength="189.7949" x="803.43" y="135.1638">predictions / high-level alerts</text></g><!--link FeatureStore to CM--><g class="link" data-entity-1="FeatureStore" data-entity-2="CM" data-source-line="13" data-uid="lnk11" id="link_FeatureStore_CM"><path d="M383.76,142.0969 C430.36,142.0969 492.29,142.0969 550.37,142.0969" fill="none" id="FeatureStore-to-CM" style="stroke:#181818;stroke-width:1;"/><polygon fill="#181818" points="556.37,142.0969,547.37,138.0969,551.37,142.0969,547.37,146.0969,556.37,142.0969" style="stroke:#181818;stroke-width:1;"/><text fill="#000000" font-family="sans-serif" font-size="13" lengthAdjust="spacing" textLength="137.0142" x="401.67" y="135.1638">provide training data</text></g><!--link Cloud to Ops--><g class="link" data-entity-1="Cloud" data-entity-2="Ops" data-source-line="15" data-uid="lnk14" id="link_Cloud_Ops"><path d="M1051.18,142.0969 C1100.11,142.0969 1217.61,142.0969 1259.07,142.0969" fill="none" id="Cloud-to-Ops" style="stroke:#181818;stroke-width:1;"/><polygon fill="#181818" points="1265.07,142.0969,1256.07,138.0969,1260.07,142.0969,1256.07,146.0969,1265.07,142.0969" style="stroke:#181818;stroke-width:1;"/><text fill="#000000" font-family="sans-serif" font-size="13" lengthAdjust="spacing" textLength="178.9976" x="1069.08" y="135.1638">notify / recommend actions</text></g><!--SRC=[LP11JyCm38Nl-HNMJglGn7q73bG38LP0WZzW6hUBbCPHuWxnxt4QAdN7lBpl-TdYn1DqPuWkadU1O4zsf4FlURQDCTWB9pYfzCQM_fzj-JGM1Ryn4pmHofpeKx_8z3n53XG4TeM2JZ4F-xCRB_Bys3Kxm0odRkjRubRZLyAG1quJfUfjEsFM-N1uK1QEuC98MU3ruoKR5OgyMew0WIVqlt0FddyEdgwQYvwItEHiMoiqHyzeOQXgXhkAP5FRAT2MmPBG1KsUewvFCDNIF0pbTesv2LsPcFZgTEZ2QdCebpFjKhkc5mzPrulZa3NzejVQ5j-qU8zPxO753MN3H7h8YO85hFGV]--></g></svg>