<svg xmlns="http://www.w3.org/2000/svg" xmlns:xlink="http://www.w3.org/1999/xlink" contentStyleType="text/css" data-diagram-type="SEQUENCE" height="465px" preserveAspectRatio="none" style="width:617px;height:465px;background:#FFFFFF;" version="1.1" viewBox="0 0 617 465" width="617px" zoomAndPan="magnify"><title>Ray usage patterns (Task / Actor / Object Store)</title><defs/><g><text fill="#000000" font-family="sans-serif" font-size="14" font-weight="bold" lengthAdjust="spacing" textLength="379.1758" x="120.5723" y="27.9951">Ray usage patterns (Task / Actor / Object Store)</text><g><title>Frontend . API</title><rect fill="#000000" fill-opacity="0.00000" height="266.1953" width="8" x="53.4375" y="118.5938"/><line style="stroke:#181818;stroke-width:0.5;stroke-dasharray:5,5;" x1="57" x2="57" y1="118.5938" y2="384.7891"/></g><g><title>Ray Task .stateless.</title><rect fill="#000000" fill-opacity="0.00000" height="266.1953" width="8" x="204.7588" y="118.5938"/><line style="stroke:#181818;stroke-width:0.5;stroke-dasharray:5,5;" x1="208.0068" x2="208.0068" y1="118.5938" y2="384.7891"/></g><g><title>Ray Actor .stateful.</title><rect fill="#000000" fill-opacity="0.00000" height="266.1953" width="8" x="367.8394" y="118.5938"/><line style="stroke:#181818;stroke-width:0.5;stroke-dasharray:5,5;" x1="371.5107" x2="371.5107" y1="118.5938" y2="384.7891"/></g><g><title>Object Store .Plasma.</title><rect fill="#000000" fill-opacity="0.00000" height="266.1953" width="8" x="532.7441" y="118.5938"/><line style="stroke:#181818;stroke-width:0.5;stroke-dasharray:5,5;" x1="536.168" x2="536.168" y1="118.5938" y2="384.7891"/></g><g class="participant participant-head" data-participant="API"><text fill="#000000" font-family="sans-serif" font-size="14" lengthAdjust="spacing" textLength="98.875" x="5" y="115.292">Frontend / API</text><ellipse cx="57.4375" cy="50.7969" fill="#E2E2F0" rx="8" ry="8" style="stroke:#181818;stroke-width:0.5;"/><path d="M57.4375,58.7969 L57.4375,85.7969 M44.4375,66.7969 L70.4375,66.7969 M57.4375,85.7969 L44.4375,100.7969 M57.4375,85.7969 L70.4375,100.7969" fill="none" style="stroke:#181818;stroke-width:0.5;"/></g><g class="participant participant-tail" data-participant="API"><text fill="#000000" font-family="sans-serif" font-size="14" lengthAdjust="spacing" textLength="98.875" x="5" y="396.7842">Frontend / API</text><ellipse cx="57.4375" cy="408.5859" fill="#E2E2F0" rx="8" ry="8" style="stroke:#181818;stroke-width:0.5;"/><path d="M57.4375,416.5859 L57.4375,443.5859 M44.4375,424.5859 L70.4375,424.5859 M57.4375,443.5859 L44.4375,458.5859 M57.4375,443.5859 L70.4375,458.5859" fill="none" style="stroke:#181818;stroke-width:0.5;"/></g><g class="participant participant-head" data-participant="Task"><rect fill="#E2E2F0" height="30.2969" rx="2.5" ry="2.5" style="stroke:#181818;stroke-width:0.5;" width="155.5039" x="131.0068" y="87.2969"/><text fill="#000000" font-family="sans-serif" font-size="14" lengthAdjust="spacing" textLength="141.5039" x="138.0068" y="107.292">Ray Task (stateless)</text></g><g class="participant participant-tail" data-participant="Task"><rect fill="#E2E2F0" height="30.2969" rx="2.5" ry="2.5" style="stroke:#181818;stroke-width:0.5;" width="155.5039" x="131.0068" y="383.7891"/><text fill="#000000" font-family="sans-serif" font-size="14" lengthAdjust="spacing" textLength="141.5039" x="138.0068" y="403.7842">Ray Task (stateless)</text></g><g class="participant participant-head" data-participant="Actor"><rect fill="#E2E2F0" height="30.2969" rx="2.5" ry="2.5" style="stroke:#181818;stroke-width:0.5;" width="150.6572" x="296.5107" y="87.2969"/><text fill="#000000" font-family="sans-serif" font-size="14" lengthAdjust="spacing" textLength="136.6572" x="303.5107" y="107.292">Ray Actor (stateful)</text></g><g class="participant participant-tail" data-participant="Actor"><rect fill="#E2E2F0" height="30.2969" rx="2.5" ry="2.5" style="stroke:#181818;stroke-width:0.5;" width="150.6572" x="296.5107" y="383.7891"/><text fill="#000000" font-family="sans-serif" font-size="14" lengthAdjust="spacing" textLength="136.6572" x="303.5107" y="403.7842">Ray Actor (stateful)</text></g><g class="participant participant-head" data-participant="OBJ"><text fill="#000000" font-family="sans-serif" font-size="14" lengthAdjust="spacing" textLength="153.1523" x="457.168" y="115.292">Object Store (Plasma)</text><path d="M518.7441,66.2969 C518.7441,56.2969 536.7441,56.2969 536.7441,56.2969 C536.7441,56.2969 554.7441,56.2969 554.7441,66.2969 L554.7441,92.2969 C554.7441,102.2969 536.7441,102.2969 536.7441,102.2969 C536.7441,102.2969 518.7441,102.2969 518.7441,92.2969 L518.7441,66.2969" fill="#E2E2F0" style="stroke:#181818;stroke-width:0.5;"/><path d="M518.7441,66.2969 C518.7441,76.2969 536.7441,76.2969 536.7441,76.2969 C536.7441,76.2969 554.7441,76.2969 554.7441,66.2969" fill="none" style="stroke:#181818;stroke-width:0.5;"/></g><g class="participant participant-tail" data-participant="OBJ"><text fill="#000000" font-family="sans-serif" font-size="14" lengthAdjust="spacing" textLength="153.1523" x="457.168" y="396.7842">Object Store (Plasma)</text><path d="M518.7441,410.0859 C518.7441,400.0859 536.7441,400.0859 536.7441,400.0859 C536.7441,400.0859 554.7441,400.0859 554.7441,410.0859 L554.7441,436.0859 C554.7441,446.0859 536.7441,446.0859 536.7441,446.0859 C536.7441,446.0859 518.7441,446.0859 518.7441,436.0859 L518.7441,410.0859" fill="#E2E2F0" style="stroke:#181818;stroke-width:0.5;"/><path d="M518.7441,410.0859 C518.7441,420.0859 536.7441,420.0859 536.7441,420.0859 C536.7441,420.0859 554.7441,420.0859 554.7441,410.0859" fill="none" style="stroke:#181818;stroke-width:0.5;"/></g><g class="message" data-participant-1="API" data-participant-2="Task"><polygon fill="#181818" points="196.7588,145.7266,206.7588,149.7266,196.7588,153.7266,200.7588,149.7266" style="stroke:#181818;stroke-width:1;"/><line style="stroke:#181818;stroke-width:1;" x1="57.4375" x2="202.7588" y1="149.7266" y2="149.7266"/><text fill="#000000" font-family="sans-serif" font-size="13" lengthAdjust="spacing" textLength="127.3213" x="64.4375" y="144.6606">submit remote task</text></g><g class="message" data-participant-1="Task" data-participant-2="OBJ"><polygon fill="#181818" points="524.7441,189.9922,534.7441,193.9922,524.7441,197.9922,528.7441,193.9922" style="stroke:#181818;stroke-width:1;"/><line style="stroke:#181818;stroke-width:1;" x1="208.7588" x2="530.7441" y1="193.9922" y2="193.9922"/><text fill="#000000" font-family="sans-serif" font-size="13" lengthAdjust="spacing" textLength="108.4688" x="215.7588" y="173.7935">put(large_result)</text><text fill="#000000" font-family="sans-serif" font-size="13" lengthAdjust="spacing" textLength="88.6323" x="215.7588" y="188.9263">return obj_ref</text></g><g class="message" data-participant-1="API" data-participant-2="Actor"><polygon fill="#181818" points="359.8394,219.125,369.8394,223.125,359.8394,227.125,363.8394,223.125" style="stroke:#181818;stroke-width:1;"/><line style="stroke:#181818;stroke-width:1;" x1="57.4375" x2="365.8394" y1="223.125" y2="223.125"/><text fill="#000000" font-family="sans-serif" font-size="13" lengthAdjust="spacing" textLength="194.7461" x="64.4375" y="218.0591">call method (update_position)</text></g><g class="message" data-participant-1="Actor" data-participant-2="OBJ"><polygon fill="#181818" points="524.7441,263.3906,534.7441,267.3906,524.7441,271.3906,528.7441,267.3906" style="stroke:#181818;stroke-width:1;"/><line style="stroke:#181818;stroke-width:1;" x1="371.8394" x2="530.7441" y1="267.3906" y2="267.3906"/><text fill="#000000" font-family="sans-serif" font-size="13" lengthAdjust="spacing" textLength="75.7275" x="378.8394" y="247.1919">get(obj_ref)</text><text fill="#000000" font-family="sans-serif" font-size="13" lengthAdjust="spacing" textLength="105.1299" x="378.8394" y="262.3247">use shared data</text></g><g class="message" data-participant-1="Task" data-participant-2="Actor"><polygon fill="#181818" points="359.8394,292.5234,369.8394,296.5234,359.8394,300.5234,363.8394,296.5234" style="stroke:#181818;stroke-width:1;"/><line style="stroke:#181818;stroke-width:1;" x1="208.7588" x2="365.8394" y1="296.5234" y2="296.5234"/><text fill="#000000" font-family="sans-serif" font-size="13" lengthAdjust="spacing" textLength="103.1304" x="215.7588" y="291.4575">notify / send ref</text></g><path d="M258,309.5234 L258,334.5234 L484,334.5234 L484,319.5234 L474,309.5234 L258,309.5234" fill="#FEFFDD" style="stroke:#181818;stroke-width:0.5;"/><path d="M474,309.5234 L474,319.5234 L484,319.5234 L474,309.5234" fill="#FEFFDD" style="stroke:#181818;stroke-width:0.5;"/><text fill="#000000" font-family="sans-serif" font-size="13" lengthAdjust="spacing" textLength="205.5879" x="264" y="326.5903">Actors persist state across calls</text><path d="M102,344.6563 L102,369.6563 L315,369.6563 L315,354.6563 L305,344.6563 L102,344.6563" fill="#FEFFDD" style="stroke:#181818;stroke-width:0.5;"/><path d="M305,344.6563 L305,354.6563 L315,354.6563 L305,344.6563" fill="#FEFFDD" style="stroke:#181818;stroke-width:0.5;"/><text fill="#000000" font-family="sans-serif" font-size="13" lengthAdjust="spacing" textLength="192.4482" x="108" y="361.7231">Tasks are short-lived, parallel</text><!--SRC=[PP5FQyCm3CNl_XGYfmHMTizXi1q6swLbst5Gb4HftJbsaEH2l_tyPos5NImi__pUiwnM7S47NY0A7WXML2Ns0kqNoWyymlEeWLFT3YSQ5JxJZZfZiBIRLmvUoKyPtBqrW9AhMP7LZdP5hz1ayIBMYgAI8v6kaBdv7ws6bPsZgsXfcWaL1nI2vZuDj3k7ic0bjo_lngGCi7cghZr871QhmBG49T3iMauIaUW4h55RXtoWFPD4fzstPzB87i9mIhtvAbYpzJ2YSx2G7iC4RLnJBjglGQpQu3jJgPlwWRJzqqd2CSMN8p9Da9zpItALza7jV4dpb3pMx6ryZXtEn1NgQn5OYSMAGXaLuCX1f4IJkojPlo-hG79Dte5ru-oPfeVqsvnmShy0]--></g></svg>