<svg xmlns="http://www.w3.org/2000/svg" xmlns:xlink="http://www.w3.org/1999/xlink" contentStyleType="text/css" data-diagram-type="SEQUENCE" height="516px" preserveAspectRatio="none" style="width:1146px;height:516px;background:#FFFFFF;" version="1.1" viewBox="0 0 1146 516" width="1146px" zoomAndPan="magnify"><title>Simulation lifecycle sequence</title><defs/><g><text fill="#000000" font-family="sans-serif" font-size="14" font-weight="bold" lengthAdjust="spacing" textLength="234.7803" x="454.7476" y="27.9951">Simulation lifecycle sequence</text><g><title>User</title><rect fill="#000000" fill-opacity="0.00000" height="317.3281" width="8" x="19.9551" y="118.5938"/><line style="stroke:#181818;stroke-width:0.5;stroke-dasharray:5,5;" x1="23" x2="23" y1="118.5938" y2="435.9219"/></g><g><title>Frontend</title><rect fill="#000000" fill-opacity="0.00000" height="317.3281" width="8" x="213.1646" y="118.5938"/><line style="stroke:#181818;stroke-width:0.5;stroke-dasharray:5,5;" x1="216.6099" x2="216.6099" y1="118.5938" y2="435.9219"/></g><g><title>Backend</title><rect fill="#000000" fill-opacity="0.00000" height="317.3281" width="8" x="475.8872" y="118.5938"/><line style="stroke:#181818;stroke-width:0.5;stroke-dasharray:5,5;" x1="479.7065" x2="479.7065" y1="118.5938" y2="435.9219"/></g><g><title>Ray Head</title><rect fill="#000000" fill-opacity="0.00000" height="317.3281" width="8" x="669.2617" y="118.5938"/><line style="stroke:#181818;stroke-width:0.5;stroke-dasharray:5,5;" x1="672.4375" x2="672.4375" y1="118.5938" y2="435.9219"/></g><g><title>Ray Worker</title><rect fill="#000000" fill-opacity="0.00000" height="317.3281" width="8" x="853.5908" y="118.5938"/><line style="stroke:#181818;stroke-width:0.5;stroke-dasharray:5,5;" x1="856.7495" x2="856.7495" y1="118.5938" y2="435.9219"/></g><g><title>Object Store</title><rect fill="#000000" fill-opacity="0.00000" height="317.3281" width="8" x="1085.5972" y="118.5938"/><line style="stroke:#181818;stroke-width:0.5;stroke-dasharray:5,5;" x1="1088.9189" x2="1088.9189" y1="118.5938" y2="435.9219"/></g><g class="participant participant-head" data-participant="User"><text fill="#000000" font-family="sans-serif" font-size="14" lengthAdjust="spacing" textLength="31.9102" x="5" y="115.292">User</text><ellipse cx="23.9551" cy="50.7969" fill="#E2E2F0" rx="8" ry="8" style="stroke:#181818;stroke-width:0.5;"/><path d="M23.9551,58.7969 L23.9551,85.7969 M10.9551,66.7969 L36.9551,66.7969 M23.9551,85.7969 L10.9551,100.7969 M23.9551,85.7969 L36.9551,100.7969" fill="none" style="stroke:#181818;stroke-width:0.5;"/></g><g class="participant participant-tail" data-participant="User"><text fill="#000000" font-family="sans-serif" font-size="14" lengthAdjust="spacing" textLength="31.9102" x="5" y="447.917">User</text><ellipse cx="23.9551" cy="459.7188" fill="#E2E2F0" rx="8" ry="8" style="stroke:#181818;stroke-width:0.5;"/><path d="M23.9551,467.7188 L23.9551,494.7188 M10.9551,475.7188 L36.9551,475.7188 M23.9551,494.7188 L10.9551,509.7188 M23.9551,494.7188 L36.9551,509.7188" fill="none" style="stroke:#181818;stroke-width:0.5;"/></g><g class="participant participant-head" data-participant="Frontend"><rect fill="#E2E2F0" height="30.2969" rx="2.5" ry="2.5" style="stroke:#181818;stroke-width:0.5;" width="77.1094" x="178.6099" y="87.2969"/><text fill="#000000" font-family="sans-serif" font-size="14" lengthAdjust="spacing" textLength="63.1094" x="185.6099" y="107.292">Frontend</text></g><g class="participant participant-tail" data-participant="Frontend"><rect fill="#E2E2F0" height="30.2969" rx="2.5" ry="2.5" style="stroke:#181818;stroke-width:0.5;" width="77.1094" x="178.6099" y="434.9219"/><text fill="#000000" font-family="sans-serif" font-size="14" lengthAdjust="spacing" textLength="63.1094" x="185.6099" y="454.917">Frontend</text></g><g class="participant participant-head" data-participant="Backend"><rect fill="#E2E2F0" height="30.2969" rx="2.5" ry="2.5" style="stroke:#181818;stroke-width:0.5;" width="74.3613" x="442.7065" y="87.2969"/><text fill="#000000" font-family="sans-serif" font-size="14" lengthAdjust="spacing" textLength="60.3613" x="449.7065" y="107.292">Backend</text></g><g class="participant participant-tail" data-participant="Backend"><rect fill="#E2E2F0" height="30.2969" rx="2.5" ry="2.5" style="stroke:#181818;stroke-width:0.5;" width="74.3613" x="442.7065" y="434.9219"/><text fill="#000000" font-family="sans-serif" font-size="14" lengthAdjust="spacing" textLength="60.3613" x="449.7065" y="454.917">Backend</text></g><g class="participant participant-head" data-participant="RHead"><rect fill="#E2E2F0" height="30.2969" rx="2.5" ry="2.5" style="stroke:#181818;stroke-width:0.5;" width="81.6484" x="632.4375" y="87.2969"/><text fill="#000000" font-family="sans-serif" font-size="14" lengthAdjust="spacing" textLength="67.6484" x="639.4375" y="107.292">Ray Head</text></g><g class="participant participant-tail" data-participant="RHead"><rect fill="#E2E2F0" height="30.2969" rx="2.5" ry="2.5" style="stroke:#181818;stroke-width:0.5;" width="81.6484" x="632.4375" y="434.9219"/><text fill="#000000" font-family="sans-serif" font-size="14" lengthAdjust="spacing" textLength="67.6484" x="639.4375" y="454.917">Ray Head</text></g><g class="participant participant-head" data-participant="RWorker"><rect fill="#E2E2F0" height="30.2969" rx="2.5" ry="2.5" style="stroke:#181818;stroke-width:0.5;" width="95.6826" x="809.7495" y="87.2969"/><text fill="#000000" font-family="sans-serif" font-size="14" lengthAdjust="spacing" textLength="81.6826" x="816.7495" y="107.292">Ray Worker</text></g><g class="participant participant-tail" data-participant="RWorker"><rect fill="#E2E2F0" height="30.2969" rx="2.5" ry="2.5" style="stroke:#181818;stroke-width:0.5;" width="95.6826" x="809.7495" y="434.9219"/><text fill="#000000" font-family="sans-serif" font-size="14" lengthAdjust="spacing" textLength="81.6826" x="816.7495" y="454.917">Ray Worker</text></g><g class="participant participant-head" data-participant="OBJ"><rect fill="#E2E2F0" height="30.2969" rx="2.5" ry="2.5" style="stroke:#181818;stroke-width:0.5;" width="101.3564" x="1038.9189" y="87.2969"/><text fill="#000000" font-family="sans-serif" font-size="14" lengthAdjust="spacing" textLength="87.3564" x="1045.9189" y="107.292">Object Store</text></g><g class="participant participant-tail" data-participant="OBJ"><rect fill="#E2E2F0" height="30.2969" rx="2.5" ry="2.5" style="stroke:#181818;stroke-width:0.5;" width="101.3564" x="1038.9189" y="434.9219"/><text fill="#000000" font-family="sans-serif" font-size="14" lengthAdjust="spacing" textLength="87.3564" x="1045.9189" y="454.917">Object Store</text></g><g class="message" data-participant-1="User" data-participant-2="Frontend"><polygon fill="#181818" points="205.1646,145.7266,215.1646,149.7266,205.1646,153.7266,209.1646,149.7266" style="stroke:#181818;stroke-width:1;"/><line style="stroke:#181818;stroke-width:1;" x1="23.9551" x2="211.1646" y1="149.7266" y2="149.7266"/><text fill="#000000" font-family="sans-serif" font-size="13" lengthAdjust="spacing" textLength="169.2095" x="30.9551" y="144.6606">configure scenario &amp; start</text></g><g class="message" data-participant-1="Frontend" data-participant-2="Backend"><polygon fill="#181818" points="467.8872,174.8594,477.8872,178.8594,467.8872,182.8594,471.8872,178.8594" style="stroke:#181818;stroke-width:1;"/><line style="stroke:#181818;stroke-width:1;" x1="217.1646" x2="473.8872" y1="178.8594" y2="178.8594"/><text fill="#000000" font-family="sans-serif" font-size="13" lengthAdjust="spacing" textLength="238.7227" x="224.1646" y="173.7935">POST /api/simulation/start (scenario)</text></g><g class="message" data-participant-1="Backend" data-participant-2="RHead"><polygon fill="#181818" points="661.2617,203.9922,671.2617,207.9922,661.2617,211.9922,665.2617,207.9922" style="stroke:#181818;stroke-width:1;"/><line style="stroke:#181818;stroke-width:1;" x1="479.8872" x2="667.2617" y1="207.9922" y2="207.9922"/><text fill="#000000" font-family="sans-serif" font-size="13" lengthAdjust="spacing" textLength="169.3745" x="486.8872" y="202.9263">submit tasks (ray.remote)</text></g><g class="message" data-participant-1="RHead" data-participant-2="RWorker"><polygon fill="#181818" points="845.5908,233.125,855.5908,237.125,845.5908,241.125,849.5908,237.125" style="stroke:#181818;stroke-width:1;"/><line style="stroke:#181818;stroke-width:1;" x1="673.2617" x2="851.5908" y1="237.125" y2="237.125"/><text fill="#000000" font-family="sans-serif" font-size="13" lengthAdjust="spacing" textLength="160.3291" x="680.2617" y="232.0591">schedule &amp; execute task</text></g><g class="message" data-participant-1="RWorker" data-participant-2="OBJ"><polygon fill="#181818" points="1077.5972,262.2578,1087.5972,266.2578,1077.5972,270.2578,1081.5972,266.2578" style="stroke:#181818;stroke-width:1;"/><line style="stroke:#181818;stroke-width:1;" x1="857.5908" x2="1083.5972" y1="266.2578" y2="266.2578"/><text fill="#000000" font-family="sans-serif" font-size="13" lengthAdjust="spacing" textLength="208.0063" x="864.5908" y="261.1919">put(large_result) returns obj_ref</text></g><g class="message" data-participant-1="RWorker" data-participant-2="Backend"><polygon fill="#181818" points="490.8872,291.3906,480.8872,295.3906,490.8872,299.3906,486.8872,295.3906" style="stroke:#181818;stroke-width:1;"/><line style="stroke:#181818;stroke-width:1;" x1="484.8872" x2="856.5908" y1="295.3906" y2="295.3906"/><text fill="#000000" font-family="sans-serif" font-size="13" lengthAdjust="spacing" textLength="161.9922" x="496.8872" y="290.3247">notify task_done(obj_ref)</text></g><g class="message" data-participant-1="Backend" data-participant-2="OBJ"><polygon fill="#181818" points="1077.5972,320.5234,1087.5972,324.5234,1077.5972,328.5234,1081.5972,324.5234" style="stroke:#181818;stroke-width:1;"/><line style="stroke:#181818;stroke-width:1;" x1="479.8872" x2="1083.5972" y1="324.5234" y2="324.5234"/><text fill="#000000" font-family="sans-serif" font-size="13" lengthAdjust="spacing" textLength="75.7275" x="486.8872" y="319.4575">get(obj_ref)</text></g><g class="message" data-participant-1="Backend" data-participant-2="Frontend"><polygon fill="#181818" points="228.1646,349.6563,218.1646,353.6563,228.1646,357.6563,224.1646,353.6563" style="stroke:#181818;stroke-width:1;"/><line style="stroke:#181818;stroke-width:1;" x1="222.1646" x2="478.8872" y1="353.6563" y2="353.6563"/><text fill="#000000" font-family="sans-serif" font-size="13" lengthAdjust="spacing" textLength="231.6323" x="234.1646" y="348.5903">push via WebSocket (state_update)</text></g><g class="message" data-participant-1="Frontend" data-participant-2="User"><polygon fill="#181818" points="34.9551,378.7891,24.9551,382.7891,34.9551,386.7891,30.9551,382.7891" style="stroke:#181818;stroke-width:1;"/><line style="stroke:#181818;stroke-width:1;" x1="28.9551" x2="216.1646" y1="382.7891" y2="382.7891"/><text fill="#000000" font-family="sans-serif" font-size="13" lengthAdjust="spacing" textLength="63.2861" x="40.9551" y="377.7231">update UI</text></g><path d="M382,395.7891 L382,420.7891 L770,420.7891 L770,405.7891 L760,395.7891 L382,395.7891" fill="#FEFFDD" style="stroke:#181818;stroke-width:0.5;"/><path d="M760,395.7891 L760,405.7891 L770,405.7891 L760,395.7891" fill="#FEFFDD" style="stroke:#181818;stroke-width:0.5;"/><text fill="#000000" font-family="sans-serif" font-size="13" lengthAdjust="spacing" textLength="367.2881" x="388" y="412.856">job_id flow: generated by Backend -&gt; used by Ray tasks</text><!--SRC=[RP91Ry8m38Nl-HKM1rIaRTmvxC1XsdPXeaCSApTr8L2IBd7O-k_djC1Wsosol-UyvuGDDmIvESG6sJWBZQb9TrgAWJuYMKrAeMRdOHN8gnOz6srQj0nFtbacMzqKvwZtlskZ9NRmJ5YD00Ciq-blV-tydln03ETRPb7kI3FaOeLwQZ5_LIgPWll7YnUOWNQsDfle9O4cYzuu64DWcQKkb2XEHaNmjiZVOOgjcORB7gQz0BBpY8awyoBj4uWmnF9W61Z3Fa3ciNlmT71C4pKG2HsY95XlgOgorp7G5-d8r0lLcH1O4WdOHiuQz1igF8NOy0GySVGsW2jtKgkl9Jyfh6DJT_tCedAMiXDzutouOKFyR_TgYMqCMpWQX3MLkHCYxOAHgOXjXIdYzIxxLvZ1q8BLYrBYXi0TfNoQVpSyEy3EbOMfe6xSPt9YoOkcWhA3AoSn3ANqCVhrgjH8Gxy1]--></g></svg>